<svg width="37" height="37" viewBox="0 0 37 37" fill="none" xmlns="http://www.w3.org/2000/svg">
<g filter="url(#filter0_b_1_4009)">
<path d="M5.02961 18.584C1.70852 14.1559 2.81555 7.5137 8.3507 5.29964C13.8858 3.08558 17.2069 7.5137 18.314 9.72775C19.421 7.5137 23.8491 3.08558 29.3843 5.29964C34.9194 7.5137 34.9194 14.1559 31.5983 18.584C28.2772 23.0121 18.314 31.8683 18.314 31.8683C18.314 31.8683 8.3507 23.0121 5.02961 18.584Z" fill="black" fill-opacity="0.2"/>
<path d="M5.02961 18.584C1.70852 14.1559 2.81555 7.5137 8.3507 5.29964C13.8858 3.08558 17.2069 7.5137 18.314 9.72775C19.421 7.5137 23.8491 3.08558 29.3843 5.29964C34.9194 7.5137 34.9194 14.1559 31.5983 18.584C28.2772 23.0121 18.314 31.8683 18.314 31.8683C18.314 31.8683 8.3507 23.0121 5.02961 18.584Z" stroke="white" stroke-width="2.21406" stroke-linecap="round" stroke-linejoin="round"/>
</g>
<defs>
<filter id="filter0_b_1_4009" x="0.952419" y="2.4818" width="35.1265" height="31.6006" filterUnits="userSpaceOnUse" color-interpolation-filters="sRGB">
<feFlood flood-opacity="0" result="BackgroundImageFix"/>
<feGaussianBlur in="BackgroundImageFix" stdDeviation="0.553515"/>
<feComposite in2="SourceAlpha" operator="in" result="effect1_backgroundBlur_1_4009"/>
<feBlend mode="normal" in="SourceGraphic" in2="effect1_backgroundBlur_1_4009" result="shape"/>
</filter>
</defs>
</svg>
