<svg width="27" height="27" viewBox="0 0 27 27" fill="none" xmlns="http://www.w3.org/2000/svg">
<g clip-path="url(#clip0_1_3960)">
<path d="M24.6525 0H1.91615C0.857839 0 0 0.857839 0 1.91615V24.6525C0 25.7109 0.857839 26.5687 1.91615 26.5687H14.1925V16.2941H10.7416V12.2725H14.1925V9.31279C14.1925 5.88062 16.2878 4.01251 19.3494 4.01251C20.8158 4.01251 22.076 4.12176 22.4433 4.17062V7.75785H20.3321C18.6663 7.75785 18.3438 8.54941 18.3438 9.7111V12.2725H22.3265L21.8076 16.2941H18.3438V26.5687H24.6525C25.7109 26.5687 26.5687 25.7109 26.5687 24.6525V1.91615C26.5687 0.857839 25.7109 0 24.6525 0V0Z" fill="white"/>
</g>
<defs>
<clipPath id="clip0_1_3960">
<rect width="26.5687" height="26.5687" fill="white"/>
</clipPath>
</defs>
</svg>
