<svg width="23" height="23" viewBox="0 0 23 23" fill="none" xmlns="http://www.w3.org/2000/svg">
<g opacity="0.7" clip-path="url(#clip0_1_3919)">
<path d="M14.7826 15.827C14.7255 15.052 14.7095 14.2744 14.7346 13.4977L14.7337 13.5318C15.4279 12.8122 15.8608 11.8806 15.9634 10.886L15.9652 10.8666C16.278 10.8408 16.7715 10.5364 16.9154 9.32971C16.9589 9.12189 16.9425 8.90602 16.8682 8.70714C16.7939 8.50825 16.6647 8.33451 16.4957 8.20607L16.4929 8.20423C17.0022 6.67284 18.0594 1.93475 14.5363 1.44581C14.1737 0.809273 13.2456 0.486389 12.039 0.486389C7.21141 0.574951 6.6293 4.13128 7.68466 8.20423C7.51426 8.33384 7.38428 8.50931 7.30995 8.71009C7.23562 8.91087 7.22 9.12867 7.26491 9.33801L7.26399 9.33063C7.4116 10.5354 7.90146 10.8417 8.21419 10.8676C8.32389 11.8732 8.77063 12.8122 9.48174 13.5318C9.50513 14.3222 9.48727 15.1132 9.42823 15.9018L9.43285 15.827C8.47527 18.3954 2.02867 17.6739 1.73346 22.627H22.4515C22.1545 17.6739 15.7374 18.3954 14.7816 15.827H14.7826Z" fill="white"/>
</g>
<defs>
<clipPath id="clip0_1_3919">
<rect width="22.1406" height="22.1406" fill="white" transform="translate(0.626404 0.486389)"/>
</clipPath>
</defs>
</svg>
