<svg width="306" height="55" viewBox="0 0 306 55" fill="none" xmlns="http://www.w3.org/2000/svg">
<rect x="0.19458" y="0.101807" width="95" height="54" rx="9" fill="#E7F2F5"/>
<path d="M59.7093 27.3749C59.7107 26.5578 59.6412 25.7421 59.5014 24.9371H48.1919V29.5568H54.672C54.5391 30.2951 54.2579 30.9987 53.8455 31.6253C53.4331 32.2518 52.898 32.7883 52.2726 33.2024V36.2001H56.1389C57.3185 35.0609 58.2459 33.6868 58.8609 32.1665C59.476 30.6463 59.765 29.0139 59.7093 27.3749Z" fill="#009EE2"/>
<path d="M48.1884 39.0973C51.1112 39.1791 53.9551 38.1431 56.1402 36.2003L52.2739 33.2026C51.3429 33.7985 50.2885 34.1745 49.1905 34.302C48.0925 34.4295 46.9799 34.3053 45.9372 33.9386C44.8944 33.572 43.9489 32.9725 43.1723 32.1859C42.3958 31.3992 41.8087 30.446 41.4555 29.3986H37.4708V32.4891C38.4695 34.4755 40.0006 36.1453 41.8931 37.3122C43.7856 38.479 45.9651 39.0971 48.1884 39.0973Z" fill="#34A853"/>
<path d="M41.4555 29.3942C40.9531 27.9046 40.9531 26.2913 41.4555 24.8017V21.7159H37.4708C36.6316 23.3876 36.1946 25.2322 36.1946 27.1027C36.1946 28.9732 36.6316 30.8178 37.4708 32.4895L41.4555 29.3942Z" fill="#FBBC04"/>
<path d="M48.1884 19.8504C49.899 19.8226 51.5519 20.4684 52.7906 21.6484L56.2186 18.2236C54.0457 16.1848 51.1679 15.0663 48.1884 15.1027C45.9646 15.1033 43.7847 15.7221 41.8922 16.8898C39.9996 18.0575 38.4689 19.7283 37.4708 21.7156L41.4555 24.8061C41.9194 23.3802 42.8182 22.1354 44.0258 21.2465C45.2334 20.3577 46.6891 19.8695 48.1884 19.8504Z" fill="#EA4335"/>
<rect x="105.195" y="0.101807" width="95" height="54" rx="9" fill="#E7F2F5"/>
<path d="M164.202 27.1022C164.201 24.8083 163.543 22.5627 162.306 20.6311C161.069 18.6995 159.304 17.1628 157.22 16.203C155.137 15.2433 152.822 14.9005 150.55 15.2155C148.278 15.5304 146.144 16.4898 144.4 17.9801C142.656 19.4703 141.376 21.4291 140.71 23.6244C140.045 25.8197 140.023 28.1596 140.646 30.3672C141.27 32.5747 142.512 34.5575 144.228 36.0806C145.943 37.6038 148.058 38.6036 150.324 38.9617V30.5699H147.278V27.1022H150.323V24.4588C150.258 23.8412 150.329 23.2168 150.532 22.6299C150.734 22.0429 151.064 21.5078 151.497 21.0623C151.929 20.6169 152.455 20.2721 153.035 20.0523C153.616 19.8326 154.238 19.7433 154.858 19.7907C155.759 19.8036 156.658 19.8829 157.548 20.0281V22.981H156.033C155.775 22.947 155.513 22.9713 155.266 23.0522C155.019 23.1332 154.793 23.2686 154.605 23.4486C154.418 23.6285 154.273 23.8483 154.182 24.0917C154.091 24.3352 154.055 24.596 154.079 24.8549V27.1022H157.413L156.879 30.5699H154.079V38.9564C156.901 38.5087 159.471 37.069 161.326 34.8961C163.182 32.7232 164.201 29.9596 164.202 27.1022Z" fill="#009EE2"/>
<path d="M156.874 30.5752L157.408 27.1075H154.073V24.8562C154.05 24.5972 154.086 24.3364 154.177 24.093C154.268 23.8496 154.413 23.6297 154.6 23.4498C154.788 23.2699 155.014 23.1344 155.261 23.0535C155.508 22.9726 155.77 22.9482 156.027 22.9823H157.541V20.0294C156.652 19.8842 155.752 19.8048 154.851 19.792C154.232 19.7445 153.61 19.8338 153.029 20.0536C152.448 20.2733 151.923 20.6182 151.49 21.0636C151.057 21.509 150.728 22.0442 150.525 22.6311C150.322 23.2181 150.251 23.8425 150.316 24.46V27.1035H147.271V30.5711H150.316V38.9576C150.936 39.0556 151.563 39.1037 152.19 39.1017C152.818 39.1005 153.445 39.0524 154.065 38.9576V30.5711L156.874 30.5752Z" fill="white"/>
<rect x="210.195" y="0.101807" width="95" height="54" rx="9" fill="#E7F2F5"/>
<path d="M264.059 27.7826C264.037 26.8499 264.276 25.9295 264.749 25.1253C265.222 24.3212 265.91 23.6653 266.736 23.2318C266.216 22.5095 265.536 21.9176 264.748 21.5029C263.961 21.0881 263.088 20.8616 262.198 20.8412C260.296 20.6913 258.216 21.9508 257.455 21.9508C256.652 21.9508 254.808 20.8948 253.361 20.8948C250.373 20.9496 247.195 23.2866 247.195 28.0396C247.209 29.5229 247.47 30.9935 247.967 32.391C248.652 34.3586 251.128 39.1811 253.712 39.1008C255.062 39.0687 256.017 38.1411 257.774 38.1411C259.478 38.1411 260.363 39.1008 261.868 39.1008C264.473 39.0633 266.714 34.6838 267.367 32.7069C266.388 32.3078 265.551 31.6259 264.962 30.7485C264.373 29.8711 264.059 28.838 264.061 27.7813L264.059 27.7826ZM261.026 18.9834C261.5 18.4619 261.859 17.8472 262.08 17.1787C262.302 16.5102 262.381 15.8027 262.313 15.1018C260.909 15.2527 259.612 15.9207 258.673 16.9757C258.194 17.4886 257.825 18.0946 257.589 18.7561C257.353 19.4176 257.256 20.1205 257.303 20.8211C258.026 20.8365 258.742 20.6775 259.39 20.3576C260.038 20.0377 260.6 19.5664 261.028 18.9834H261.026Z" fill="black"/>
</svg>
