<svg width="21" height="21" viewBox="0 0 21 21" fill="none" xmlns="http://www.w3.org/2000/svg">
<g clip-path="url(#clip0_306_12)">
<path opacity="0.16" d="M8.27695 10.4929C8.27705 10.9955 8.42618 11.4869 8.70548 11.9047C8.98478 12.3226 9.38171 12.6483 9.84608 12.8407C10.3105 13.033 10.8214 13.0833 11.3144 12.9853C11.8074 12.8873 12.2602 12.6453 12.6157 12.2899L15.4625 15.1367C14.0635 15.9872 12.4559 16.4327 10.8187 16.4237C6.86712 16.4237 3.70179 13.9641 2.34619 10.4929C3.10956 8.5383 4.44737 6.90396 6.17576 5.84998L9.02168 8.69589C8.78526 8.93158 8.59776 9.21167 8.46995 9.52007C8.34215 9.82846 8.27655 10.1591 8.27695 10.4929Z" fill="black"/>
<path d="M9.74269 4.62398C10.0999 4.58255 10.4591 4.5619 10.8187 4.56214C14.7703 4.56214 17.9356 7.0217 19.2912 10.4929C18.9631 11.3372 18.5197 12.1322 17.9737 12.855M6.17576 5.84911C4.44737 6.90394 3.10872 8.53828 2.34619 10.4929C3.70179 13.9641 6.86712 16.4236 10.8187 16.4236C12.4557 16.4323 14.063 15.9865 15.4616 15.1358M9.02253 8.69672C8.78648 8.93276 8.59924 9.21299 8.4715 9.52139C8.34375 9.8298 8.278 10.1603 8.278 10.4942C8.278 10.828 8.34375 11.1585 8.4715 11.4669C8.59924 11.7753 8.78648 12.0556 9.02253 12.2916C9.25857 12.5276 9.53879 12.7149 9.8472 12.8426C10.1556 12.9704 10.4862 13.0361 10.82 13.0361C11.1538 13.0361 11.4843 12.9704 11.7927 12.8426C12.1011 12.7149 12.3814 12.5276 12.6174 12.2916" stroke="black" stroke-width="1.6945" stroke-linecap="round" stroke-linejoin="round"/>
<path d="M4.04077 3.71497L17.5968 17.271" stroke="black" stroke-width="1.6945" stroke-linecap="round"/>
</g>
<defs>
<clipPath id="clip0_306_12">
<rect width="20.334" height="20.334" fill="white" transform="translate(0.651733 0.325928)"/>
</clipPath>
</defs>
</svg>
