<svg width="28" height="27" viewBox="0 0 28 27" fill="none" xmlns="http://www.w3.org/2000/svg">
<g clip-path="url(#clip0_1_3961)">
<path d="M26.2759 1.00341C25.6071 0.334369 24.8056 0 23.8718 0H4.11802C3.18392 0 2.38262 0.33449 1.71358 1.00341C1.04467 1.67215 0.710297 2.47356 0.710297 3.40748V23.161C0.710297 24.0948 1.0446 24.8964 1.71358 25.5652C2.38262 26.2341 3.1841 26.5687 4.11802 26.5687H23.8715C24.8051 26.5687 25.6069 26.2341 26.2758 25.5652C26.9448 24.8964 27.2789 24.0948 27.2789 23.161V3.40748C27.2788 2.47338 26.9448 1.67239 26.2759 1.00341ZM10.2501 9.57394C11.2936 8.56508 12.5477 8.06041 14.0122 8.06041C15.4881 8.06041 16.7478 8.56508 17.7916 9.57394C18.8353 10.583 19.3569 11.8026 19.3569 13.2324C19.3569 14.6621 18.8353 15.8817 17.7916 16.8905C16.7478 17.8998 15.4885 18.4044 14.0122 18.4044C12.5478 18.4044 11.2938 17.8994 10.2501 16.8905C9.20631 15.8816 8.68449 14.6621 8.68449 13.2324C8.68449 11.8026 9.20631 10.583 10.2501 9.57394ZM24.2696 22.4521C24.2696 22.7517 24.1655 23.0024 23.9581 23.2044C23.7502 23.4061 23.5026 23.507 23.214 23.507H4.72351C4.42373 23.507 4.17273 23.4061 3.9711 23.2044C3.76917 23.0028 3.6683 22.7517 3.6683 22.4521V11.2431H6.10715C5.87662 11.9697 5.76133 12.7251 5.76133 13.5091C5.76133 15.7236 6.56844 17.6116 8.18285 19.1744C9.79744 20.7367 11.7405 21.5182 14.0122 21.5182C15.5113 21.5182 16.895 21.1605 18.1639 20.4456C19.4323 19.7303 20.4349 18.759 21.1735 17.5308C21.9116 16.3026 22.2806 14.9619 22.2806 13.5091C22.2806 12.7251 22.1649 11.9699 21.9344 11.2431H24.2697V22.4522H24.2696V22.4521ZM24.2696 7.0052C24.2696 7.33963 24.1543 7.6222 23.9233 7.85278C23.6928 8.08355 23.4104 8.19878 23.0758 8.19878H20.0662C19.7319 8.19878 19.4491 8.08349 19.2186 7.85278C18.988 7.6222 18.8728 7.33963 18.8728 7.0052V4.1514C18.8728 3.82849 18.988 3.54889 19.2186 3.31242C19.4492 3.07608 19.732 2.95776 20.0662 2.95776H23.0758C23.4104 2.95776 23.6928 3.07602 23.9233 3.31242C24.1543 3.54889 24.2696 3.82849 24.2696 4.1514V7.0052Z" fill="white"/>
</g>
<defs>
<clipPath id="clip0_1_3961">
<rect width="26.5687" height="26.5687" fill="white" transform="translate(0.70929)"/>
</clipPath>
</defs>
</svg>
