<svg width="21" height="21" viewBox="0 0 21 21" fill="none" xmlns="http://www.w3.org/2000/svg">
<path d="M18.9936 17.4664C17.7839 15.3751 15.9197 13.8754 13.7441 13.1645C14.8203 12.5239 15.6563 11.5477 16.124 10.3859C16.5916 9.22411 16.665 7.94092 16.3328 6.73339C16.0006 5.52586 15.2811 4.46077 14.285 3.70169C13.2889 2.9426 12.0711 2.53149 10.8187 2.53149C9.56632 2.53149 8.34855 2.9426 7.35242 3.70169C6.35629 4.46077 5.63687 5.52586 5.30465 6.73339C4.97243 7.94092 5.04578 9.22411 5.51343 10.3859C5.98108 11.5477 6.81718 12.5239 7.89332 13.1645C5.71774 13.8746 3.85352 15.3743 2.6438 17.4664C2.59944 17.5388 2.57002 17.6193 2.55727 17.7032C2.54451 17.7871 2.54869 17.8726 2.56956 17.9549C2.59042 18.0371 2.62755 18.1144 2.67875 18.1821C2.72995 18.2497 2.79418 18.3065 2.86766 18.3489C2.94114 18.3913 3.02237 18.4186 3.10657 18.4292C3.19077 18.4397 3.27622 18.4333 3.3579 18.4103C3.43957 18.3872 3.5158 18.3481 3.5821 18.2951C3.6484 18.2422 3.70341 18.1765 3.74391 18.1019C5.24036 15.5157 7.88537 13.9715 10.8187 13.9715C13.7521 13.9715 16.3971 15.5157 17.8935 18.1019C17.934 18.1765 17.989 18.2422 18.0553 18.2951C18.1216 18.3481 18.1979 18.3872 18.2795 18.4103C18.3612 18.4333 18.4467 18.4397 18.5309 18.4292C18.6151 18.4186 18.6963 18.3913 18.7698 18.3489C18.8432 18.3065 18.9075 18.2497 18.9587 18.1821C19.0099 18.1144 19.047 18.0371 19.0679 17.9549C19.0887 17.8726 19.0929 17.7871 19.0802 17.7032C19.0674 17.6193 19.038 17.5388 18.9936 17.4664ZM6.37065 8.2526C6.37065 7.37285 6.63152 6.51286 7.12028 5.78138C7.60904 5.0499 8.30373 4.47978 9.11651 4.14312C9.92929 3.80646 10.8236 3.71837 11.6865 3.89C12.5493 4.06163 13.3419 4.48527 13.964 5.10734C14.586 5.72941 15.0097 6.52198 15.1813 7.38482C15.3529 8.24766 15.2649 9.14202 14.9282 9.9548C14.5915 10.7676 14.0214 11.4623 13.2899 11.951C12.5584 12.4398 11.6985 12.7007 10.8187 12.7007C9.6394 12.6994 8.50875 12.2304 7.67485 11.3965C6.84095 10.5626 6.37191 9.43191 6.37065 8.2526Z" fill="black" fill-opacity="0.95"/>
</svg>
