<svg width="17" height="17" viewBox="0 0 17 17" fill="none" xmlns="http://www.w3.org/2000/svg">
<path opacity="0.4" d="M11.5421 0.16095H4.56372C1.83514 0.16095 0 2.07658 0 4.92589V11.5018C0 14.3431 1.83514 16.2587 4.56372 16.2587H11.5421C14.2707 16.2587 16.0978 14.3431 16.0978 11.5018V4.92589C16.0978 2.07658 14.2707 0.16095 11.5421 0.16095Z" fill="#009EE2"/>
<path d="M7.09344 10.8244C6.91314 10.8244 6.73285 10.756 6.59521 10.6184L4.68521 8.70836C4.40994 8.43309 4.40994 7.98718 4.68521 7.71272C4.96049 7.43745 5.40559 7.43664 5.68086 7.71191L7.09344 9.12449L10.416 5.80191C10.6913 5.52664 11.1364 5.52664 11.4117 5.80191C11.6869 6.07718 11.6869 6.52309 11.4117 6.79836L7.59166 10.6184C7.45403 10.756 7.27373 10.8244 7.09344 10.8244Z" fill="black"/>
</svg>
