<svg width="27" height="27" viewBox="0 0 27 27" fill="none" xmlns="http://www.w3.org/2000/svg">
<g clip-path="url(#clip0_1_3962)">
<path d="M26.9873 5.0463C25.9993 5.4797 24.9465 5.76697 23.8488 5.90646C24.978 5.23228 25.8398 4.17285 26.245 2.8959C25.1922 3.52358 24.0298 3.96695 22.7911 4.21437C21.7914 3.14996 20.3667 2.49072 18.8124 2.49072C15.7969 2.49072 13.3692 4.93836 13.3692 7.93897C13.3692 8.37071 13.4057 8.78584 13.4954 9.18105C8.96706 8.9602 4.96017 6.78987 2.26842 3.48373C1.79849 4.29905 1.52284 5.23228 1.52284 6.23691C1.52284 8.12329 2.49426 9.79545 3.94225 10.7636C3.06715 10.7469 2.20865 10.4929 1.48133 10.0927C1.48133 10.1093 1.48133 10.1309 1.48133 10.1525C1.48133 12.7994 3.36936 14.9979 5.84524 15.5044C5.40187 15.6256 4.91865 15.6837 4.41717 15.6837C4.06845 15.6837 3.71642 15.6638 3.38597 15.5908C4.0917 17.7478 6.09432 19.3336 8.47554 19.3851C6.62237 20.8347 4.26938 21.7082 1.72211 21.7082C1.27542 21.7082 0.846999 21.6883 0.418579 21.6335C2.83135 23.1894 5.69081 24.0778 8.77444 24.0778C18.7975 24.0778 24.2773 15.7751 24.2773 8.57828C24.2773 8.3375 24.269 8.10502 24.2573 7.87421C25.3384 7.10703 26.2467 6.1489 26.9873 5.0463Z" fill="white"/>
</g>
<defs>
<clipPath id="clip0_1_3962">
<rect width="26.5687" height="26.5687" fill="white" transform="translate(0.418579)"/>
</clipPath>
</defs>
</svg>
