<svg width="27" height="27" viewBox="0 0 27 27" fill="none" xmlns="http://www.w3.org/2000/svg">
<g clip-path="url(#clip0_1_3963)">
<path d="M25.5674 5.91154C24.8467 4.6296 24.0646 4.39381 22.4721 4.30414C20.8813 4.1962 16.8811 4.15137 13.4155 4.15137C9.94331 4.15137 5.9414 4.1962 4.35226 4.30248C2.76312 4.39381 1.97934 4.62794 1.25203 5.91154C0.509763 7.19182 0.127838 9.39702 0.127838 13.2794C0.127838 13.2827 0.127838 13.2844 0.127838 13.2844C0.127838 13.2877 0.127838 13.2893 0.127838 13.2893V13.2927C0.127838 17.1584 0.509763 19.3802 1.25203 20.6472C1.97934 21.9291 2.76146 22.1616 4.3506 22.2696C5.9414 22.3625 9.94331 22.4173 13.4155 22.4173C16.8811 22.4173 20.8813 22.3625 22.4738 22.2712C24.0662 22.1633 24.8484 21.9308 25.569 20.6489C26.3179 19.3819 26.6965 17.1601 26.6965 13.2943C26.6965 13.2943 26.6965 13.2893 26.6965 13.286C26.6965 13.286 26.6965 13.2827 26.6965 13.281C26.6965 9.39702 26.3179 7.19182 25.5674 5.91154ZM10.0911 18.266V8.30273L18.3938 13.2844L10.0911 18.266Z" fill="white"/>
</g>
<defs>
<clipPath id="clip0_1_3963">
<rect width="26.5687" height="26.5687" fill="white" transform="translate(0.127838)"/>
</clipPath>
</defs>
</svg>
